<?xml version="1.0" encoding="utf-8"?>
<!-- Generator: Adobe Illustrator 15.0.0, SVG Export Plug-In . SVG Version: 6.00 Build 0)  -->
<!DOCTYPE svg PUBLIC "-//W3C//DTD SVG 1.1//EN" "http://www.w3.org/Graphics/SVG/1.1/DTD/svg11.dtd">
<svg version="1.1" id="Calque_1" focusable="false" xmlns="http://www.w3.org/2000/svg" xmlns:xlink="http://www.w3.org/1999/xlink"
	 x="0px" y="0px" width="595.279px" height="841.89px" viewBox="0 0 595.279 841.89" enable-background="new 0 0 595.279 841.89"
	 xml:space="preserve">
<path fill="#B50900" d="M147.774,293.634c1.512,8.952,9.301,15.696,18.603,15.696h19.184c11.395,0,20.463-9.883,18.951-20.928
	c-4.418-32.787-19.067-63.016-42.553-86.851c-16.742-17.091-27.438-38.716-30.694-62.202c-1.279-9.185-9.185-16.045-18.719-16.045
	H93.478c-11.395,0-20.23,9.883-18.951,20.928c4.534,37.088,20.928,71.271,47.203,98.128
	C135.682,256.545,144.634,274.334,147.774,293.634z M277.991,293.634c1.512,8.952,9.301,15.696,18.603,15.696h19.184
	c11.394,0,20.463-9.883,18.951-20.928c-4.418-32.787-19.067-63.016-42.553-86.851c-16.742-17.091-27.439-38.716-30.694-62.202
	c-1.279-9.185-9.186-16.045-18.719-16.045h-19.067c-11.395,0-20.347,9.883-18.952,20.928c4.535,37.088,20.929,71.271,47.204,98.128
	C265.9,256.545,274.852,274.334,277.991,293.634z M465.063,346.535H37.205C16.626,346.535,0,363.161,0,383.74v223.23
	c0,61.621,49.994,111.615,111.615,111.615h223.229c61.621,0,111.615-49.994,111.615-111.615h18.603
	c71.852,0,130.217-58.365,130.217-130.217C595.28,404.9,536.914,346.535,465.063,346.535z M465.063,532.56H446.46V420.945h18.603
	c30.811,0,55.808,24.998,55.808,55.808S495.873,532.56,465.063,532.56z"/>
</svg>
